<svg width="960" height="152" viewBox="0 0 960 152" fill="none" xmlns="http://www.w3.org/2000/svg">
  <!-- B Icon -->
  <g transform="translate(0, 0)">
    <path d="M24.8189 0H152.889L152.893 88.7946L152.937 111.94C152.967 124.067 153.688 133.223 144.621 142.979C138.948 149.083 134.772 148.841 128.563 152H0V27.23C3.62889 10.6391 8.7515 5.18856 24.8189 0ZM24.3095 136.013L49.4648 136.063C53.3239 136.067 57.1844 136.055 61.043 136.06C77.9749 136.081 94.7863 127.538 106.663 115.73C108.421 113.967 110.152 112.176 111.853 110.359C121.05 99.5504 129.619 83.0149 128.433 68.5488C128.02 63.5186 125.632 58.857 121.791 55.5835C104.321 40.7708 71.1114 63.2384 60.279 77.7343C59.8084 78.3642 59.2668 78.6664 58.5206 78.7772C58.9569 74.6137 60.7962 69.4182 61.775 65.2465C64.4704 53.7613 67.3919 42.3725 69.8328 30.825C70.8395 26.0643 71.7532 20.6146 73.2584 16.0654C69.2047 16.0542 64.1225 15.9154 60.1608 16.1779C55.5469 16.6715 53.4475 20.7495 52.3388 24.8399C42.3642 61.6333 34.2684 99.2555 24.3095 136.013Z" fill="#F49007"/>
    <path d="M100.215 65.9932C105.773 66.2587 110.152 69.2172 109.764 75.1502C108.03 101.638 85.0613 122.314 59.6257 123.169L48.5378 123.203C53.5862 98.4172 75.225 72.3144 100.215 65.9932Z" fill="#F49007"/>
  </g>

  <!-- BIM Text -->
  <g transform="translate(189.9, 35.05)">
    <path d="M0.085149 0.345516C14.5798 0.49802 29.117 0.211922 43.6158 0.332149C53.5652 0.612158 62.3394 -0.532055 72.2128 1.52983C84.56 4.10848 90.7332 15.0363 88.317 27.151C87.1483 33.0108 81.8591 36.8749 76.9128 39.7862C89.2564 44.5422 90.6622 55.5613 87.6546 67.0107C86.5426 69.1071 85.1295 71.3601 83.4517 73.0349C80.2546 76.214 76.2161 78.4135 71.8109 79.374C66.063 80.6339 51.811 80.2123 45.1883 80.2114L0 80.1972L0.085149 0.345516ZM20.5447 63.9748C30.6941 63.4263 58.706 65.6656 65.7087 61.91C70.422 57.3473 69.2308 53.4182 65.3287 48.9511C56.9299 45.5219 30.8534 47.1582 20.4861 47.1839C20.5721 52.7804 20.5918 58.3778 20.5447 63.9748ZM20.5117 32.4312L44.3107 32.5475C52.1223 32.5818 58.6648 33.5496 65.7806 29.8298C68.6316 26.0472 68.3523 25.7313 68.1143 20.8457L65.0843 17.1982C54.543 14.5799 32.2144 15.5711 20.5209 15.6168C20.5419 21.1786 20.6284 26.8818 20.5117 32.4312Z" fill="#FEFEFE"/>
    <path d="M99.1805 0C102.17 0.754002 116.413 0.464426 119.859 0.151819C120.444 15.1398 119.761 32.5635 119.939 47.7836C120.027 55.2724 120.439 72.8361 119.865 79.7004C118.9 80.5259 118.885 80.2356 117.245 80.2095H99.1558C98.6591 63.2862 99.2949 45.1136 99.1356 28.0456C99.0816 22.2797 98.6586 4.89316 99.1805 0Z" fill="#FEFEFE"/>
    <path d="M132.652 0.144507C135.823 0.723206 154.428 0.433768 158.039 0.159069C169.491 16.2015 180.797 32.3474 191.956 48.5949C194.824 45.3173 197.911 40.473 200.459 36.7755C205.626 29.2314 210.86 21.7344 216.163 14.2855C219.304 9.85209 222.963 4.35559 226.578 0.442052C233.588 0.28291 246.012 0.881205 252.514 0.0900269L252.607 80.27C246.381 80.0301 238.896 80.1899 232.577 80.1729C232.193 68.0898 232.488 54.0083 232.482 41.7796C232.436 34.8632 232.463 27.9467 232.565 21.0312C230.323 23.8198 226.76 29.4333 224.568 32.6267L208.32 56.1803C205.961 59.5737 202.145 65.4033 199.411 68.2766C195.131 68.4469 188.76 69.4482 184.688 67.9365C181.11 66.6078 153.694 25.045 151.395 20.0624C151.951 27.1061 151.691 36.3836 151.68 43.6178L151.707 80.2764C145.899 80.0063 138.328 80.1935 132.381 80.1894C131.766 63.4973 132.711 45.044 132.275 28.1953C132.183 24.6654 132.074 2.60791 132.652 0.144507Z" fill="#FEFEFE"/>
  </g>

  <!-- NEXUS Text -->
  <g transform="translate(473, 35.05)">
    <path d="M94.0468 0.302734L94.7975 0.36857C95.7405 1.82768 95.2919 21.9826 95.2873 25.5679C95.2095 43.8257 95.2644 62.0836 95.4475 80.3401C89.7619 80.0677 83.6231 80.2165 77.8963 80.2558C75.1405 78.3174 63.6777 66.3964 60.4183 63.1384C46.8681 49.7611 33.4414 36.255 20.1475 22.6217C20.8891 40.1828 20.2437 62.4169 20.2482 80.2403L8.17199 80.1844L0.15628 80.189C0.220369 53.8802 -0.274036 26.5655 0.226774 0.341377C7.45785 0.65023 16.5036 0.391462 23.8692 0.377865C26.6708 2.11286 40.9993 16.6576 44.4876 20.3207C53.721 30.0203 66.4519 41.3356 75.0673 51.2499C74.7514 43.53 74.9345 34.9461 74.9391 27.1794C74.9436 18.4266 74.7376 9.03298 75.0901 0.337758C81.38 0.398787 87.766 0.527484 94.0468 0.302734Z" fill="#FEFEFE"/>
    <path d="M185.154 0.300293L185.644 0.337975C186.747 1.46154 186.33 14.4609 186.326 16.8865C180.027 16.4772 171.05 16.7184 164.526 16.7194L127.355 16.8146C127.309 21.5179 127.341 26.2217 127.451 30.9245C132.931 30.4566 141.129 30.6928 146.751 30.6951L180.375 30.6347C180.617 36.0009 180.489 41.8923 180.475 47.3016C162.759 47.1665 145.043 47.1441 127.323 47.2343C127.483 52.5296 127.341 58.5468 127.341 63.9003L168.486 63.8554C174.488 63.8485 180.759 63.9355 186.733 63.6329C186.738 69.1946 186.802 74.7564 186.93 80.3172C178.475 79.9244 167.589 80.1931 159.019 80.1853L106.704 80.1693C107.24 53.6604 106.631 26.8516 106.974 0.310091C124.361 0.848317 142.086 0.150951 159.509 0.413106C167.941 0.539971 176.722 0.513963 185.154 0.300293Z" fill="#FEFEFE"/>
    <path d="M193.458 0.183716C195.852 0.709444 215.912 0.416984 219.277 0.396931C225.631 8.0521 234.136 19.232 240.664 26.1608C247.233 17.929 254.874 8.20254 262.024 0.497605C269.642 0.0291521 279.539 0.560191 287.559 0.313878C284.139 3.43221 281.397 7.21491 278.284 10.5349C270.228 19.123 261.731 30.5454 253.482 38.6417C260.349 45.6905 267.069 52.9 273.958 59.9327C280.427 66.5401 287.339 73.1187 293.474 80.032L285.563 80.206C279.118 80.2311 272.672 80.2192 266.227 80.1707C259.529 73.669 246.51 58.6201 240.504 51.2847C233.692 59.1462 221.904 73.5363 214.791 80.2366C206.262 80.2833 197.734 80.2261 189.205 80.0645C201.547 65.9257 214.42 52.7846 226.844 38.9773L206.857 16.3064C204.77 13.9765 193.838 2.53573 193.458 0.183716Z" fill="#FEFEFE"/>
    <path d="M364.846 0C368.325 0.758672 381.413 0.477472 385.144 0.0918408L385.125 35.6036L385.148 42.7105C385.162 53.573 385.913 63.2163 377.549 71.4779C367.286 81.584 352.33 81.0703 339.045 81.1624C322.378 81.2777 298.733 80.3584 294.554 59.9698C292.956 52.1835 293.487 42.8419 293.492 34.7552L293.538 0.279368C298.875 0.63785 307.903 0.484019 313.222 0.302443L313.57 0.261009C314.797 1.78888 313.808 41.4844 314.019 46.0302C314.174 49.2946 313.707 55.6566 316.784 58.4251C322.195 63.296 331.217 63.1211 338.08 63.3541C345.642 63.2081 355.832 64.1704 361.76 58.5322C366.279 54.235 364.832 42.0846 364.818 35.8311L364.846 0Z" fill="#FEFEFE"/>
    <path d="M477.615 0.309835L478.526 0.806169C479.606 3.06744 478.929 14.0768 478.815 17.3191C472.831 16.9657 465.067 17.1841 458.883 17.1822C447.589 17.2578 436.296 17.2189 425.007 17.0655C420.759 17.0408 413.375 17.2656 413.618 23.097C414.204 30.4484 426.248 30.447 431.659 31.321C446.44 33.709 467.347 31.7898 478.906 42.5603C486.748 50.1621 486.752 65.3447 478.993 72.9118C469.389 82.2753 453.234 80.1968 440.691 80.1991L394.162 80.1858C392.857 78.7743 393.388 66.1798 393.402 63.3376C406.412 62.6687 454.218 65.2733 463.392 61.9939C471.966 50.7935 453.985 50.3617 447.393 49.702C437.01 48.6632 426.298 47.7599 416.048 46.3054C402.709 44.1549 392.688 38.7072 392.528 23.7956C391.736 8.81579 403.867 0.692811 417.756 0.416189C437.646 0.019982 457.734 0.836433 477.615 0.309835Z" fill="#FEFEFE"/>
  </g>
</svg>
