<svg width="960" height="152" viewBox="0 0 960 152" fill="none" xmlns="http://www.w3.org/2000/svg">
  <!-- B Icon -->
  <g transform="translate(0, 0)">
    <path d="M23.913 0H152.958L152.92 88.6435L152.965 112.874C152.97 116.93 153.167 124.166 152.499 127.918C151.433 133.682 148.655 138.99 144.528 143.151C138.342 149.342 135.606 148.895 129.44 152H0V25.7514C3.89028 10.9726 9.30257 4.77513 23.913 0ZM110.451 111.84C121.103 100.177 137.252 70.3737 122.563 56.4108C108.267 42.8204 78.8414 57.9477 67.9554 70.2139C66.6636 71.5764 65.1429 72.3836 63.8441 73.6234C62.1801 75.2125 60.9217 78.416 58.6543 79.2689L58.3197 79.1824C58.6909 75.256 61.1222 67.3589 62.1096 63.1922C63.5306 57.1978 64.9387 50.4402 66.5826 44.5211C68.9914 35.8463 70.4659 24.6582 72.9022 16.2807C70.3492 16.0051 64.4809 15.9497 61.8459 16.1668C59.3776 16.3557 56.175 17.0749 54.9989 19.2114C51.0103 26.4574 48.6958 40.2277 46.7594 47.7871L33.0455 102.043C30.3878 112.769 27.5621 125.513 24.4497 135.967C58.181 136.045 81.5844 140.61 107.499 114.82C108.489 113.832 109.473 112.839 110.451 111.84Z" fill="#F49107"/>
    <path d="M99.4616 65.9625C99.6305 65.9479 99.8003 65.9382 99.9697 65.9337C105.965 65.7798 109.974 69.1476 109.87 75.3389C109.667 87.4018 103.194 98.8371 95.0449 107.396C84.657 118.306 73.3906 122.953 58.4817 123.269C55.5505 123.564 51.1069 123.474 48.0608 123.501C55.5784 97.7891 72.5369 73.5506 99.4616 65.9625Z" fill="#F49107"/>
  </g>

  <!-- BIM Text -->
  <g transform="translate(189.9, 35.05)">
    <path d="M0.246056 0.258385C13.0478 0.0562978 25.3864 0.218006 38.9059 0.230734C59.4323 0.250055 93.3949 -4.44217 88.4848 27.5735C87.6063 33.3032 82.3061 37.1779 77.6391 40.1222C90.2326 45.2169 91.3798 56.6192 87.664 68.1657C79.472 83.6711 59.9633 80.8669 45.1102 80.8541C30.1509 80.7886 15.1912 80.7996 0.231863 80.887C-0.21905 54.5997 0.101398 26.6335 0.246056 0.258385ZM20.8814 63.8319C28.7172 63.8626 61.1815 65.1898 66.2647 61.7634C67.6705 59.8259 69.4114 56.9292 68.6579 54.4321C66.0765 45.8762 51.8053 47.5001 44.8635 47.5056L20.8397 47.6022C20.8896 53.012 20.9033 58.4222 20.8814 63.8319ZM20.8287 32.3367L45.4201 32.432C50.9428 32.4457 61.1265 33.3046 65.6439 29.9469C67.2672 27.9768 68.8978 25.5746 68.4116 22.9475C66.8176 14.3353 50.0538 16.0338 44.1178 16.0453L20.8237 16.1359C20.9074 21.5361 20.9093 26.9371 20.8287 32.3367Z" fill="#1D1D1D"/>
    <path d="M99.1071 0.206865C106.118 0.316928 113.405 0.212541 120.439 0.202332C120.242 26.4632 120.079 54.8423 120.509 81.017C114.923 80.5079 104.942 80.8394 99.1135 80.9071L99.1071 0.206865Z" fill="#1D1D1D"/>
    <path d="M132.471 0.185669C140.954 0.383956 149.942 0.224264 158.461 0.203204C169.719 16.0041 180.86 32.9626 192.293 48.4373C196.557 43.3169 202.175 34.6882 206.108 29.0211C212.832 19.3659 219.632 9.76469 226.509 0.21822L252.963 0.219547C252.659 10.4707 252.9 21.9289 252.891 32.2946C252.816 48.4936 252.842 64.6926 252.969 80.8911C246.137 80.7689 239.302 80.7877 232.471 80.9474C231.96 70.3441 232.403 54.5521 232.406 43.5985C232.391 36.3038 232.265 28.8243 232.757 21.558C221.881 36.3972 211.527 54.9316 199.853 68.874L183.984 68.8776C178.968 62.2986 172.875 52.7656 167.982 45.8208C163.446 39.3814 155.209 27.7822 151.864 21.189C152.688 39.065 151.993 62.6003 152.08 80.8856C145.512 80.7881 138.943 80.7973 132.375 80.9136L132.471 0.185669Z" fill="#1D1D1D"/>
  </g>

  <!-- NEXUS Text -->
  <g transform="translate(473, 35.05)">
    <path d="M74.7159 0.158495C81.5688 0.223278 88.5271 0.151904 95.3938 0.135284L95.4121 80.8744L88.2616 80.7582L77.6091 80.8342C58.8768 61.4267 39.1327 42.8859 20.4187 23.2957C19.9289 41.8924 20.46 62.0411 20.3135 80.8378C13.5429 80.7279 6.7678 80.7302 0 80.8456C0.295725 54.1188 0.0567431 26.9199 0.0581165 0.154101L24.1771 0.214673C29.1074 4.57126 35.5896 11.4246 40.4786 16.2552C51.9918 27.6305 63.4134 39.0982 74.7434 50.658L74.7159 0.158495Z" fill="#1D1D1D"/>
    <path d="M106.742 0.173483L186.359 0.128937L186.354 17.1993C168.039 16.5377 146.097 17.121 127.493 17.1191L127.479 30.8042C144.921 30.366 163.282 30.7772 180.87 30.6407C180.829 36.333 180.843 42.0261 180.902 47.7183C169.847 47.5681 158.65 47.6556 147.581 47.6538C141.547 47.6615 133.367 47.906 127.498 47.4807L127.452 63.758C147.397 63.8381 167.343 63.8115 187.288 63.6774L187.33 80.8323C161.337 80.4748 132.689 80.3777 106.733 80.8575L106.742 0.173483Z" fill="#1D1D1D"/>
    <path d="M192.415 0.193858L219.186 0.185891C225.902 6.95589 233.524 18.7577 240.739 25.9182C247.344 18.76 255.415 7.91234 262.099 0.138596C270.741 0.192116 279.38 0.188638 288.018 0.128204C286.718 1.68218 285.175 3.33705 283.784 4.83041C273.598 15.7759 264.259 28.2275 253.73 38.8199C267.569 52.9724 280.835 66.89 294.889 80.9656C292.449 80.7957 289.492 80.8094 287.006 80.7568L265.811 80.8191C264.09 78.0542 258.505 72.177 256.088 69.5184C250.741 63.7365 245.536 57.8277 240.469 51.7967C231.931 61.4418 223.723 71.1414 215.089 80.7985C206.066 80.765 196.641 80.6066 187.659 80.9184C193.977 75.1342 201.182 66.7948 207.101 60.3018C213.327 53.4751 220.5 46.1438 226.419 39.2411C220.189 30.5753 208.072 18.9024 201.132 10.3522C198.824 7.51257 194.173 3.11212 192.415 0.193858Z" fill="#1D1D1D"/>
    <path d="M364.655 0.145601C371.265 0.297876 378.489 0.152513 385.145 0.145416L385.186 18.1836L385.255 45.2611C385.259 55.3471 385.351 64.4117 377.569 72.0575C366.848 82.5904 350.363 81.3662 336.579 81.4321C324.457 81.4907 309.666 81.1569 300.579 72.0035C297.521 68.893 295.397 64.9845 294.454 60.7244C293.076 54.7172 293.493 42.8012 293.498 36.1384L293.553 0.186895C300.387 0.248107 307.341 0.170598 314.185 0.151323C314.423 10.8093 314.272 24.3217 314.217 34.7022C313.979 57.4317 312.459 63.0589 337.49 63.0982C365.721 63.1431 364.691 61.3035 364.655 34.3295C364.591 22.935 364.591 11.54 364.655 0.145601Z" fill="#1D1D1D"/>
    <path d="M393.316 63.2644C414.118 62.916 435.18 63.3592 456 63.4164C458.49 63.4233 462.239 62.656 463.846 60.6868C471.793 50.9506 450.566 50.5953 445.608 49.9553C432.974 48.7452 422.33 48.1248 409.718 45.4282C391.732 41.5801 386.944 20.4302 398.356 7.55037C406.427 -1.55452 425.42 0.113363 437.501 0.130165L479.003 0.152506L478.916 17.631C475.996 17.4744 472.832 17.5252 469.88 17.5568C453.281 17.7354 436.581 17.175 420.014 17.7528C418.943 17.9094 415.349 19.0764 414.869 20.0007C409.572 30.2291 427.196 30.5743 432.557 31.3687C447.101 33.5241 462.958 32.0435 475.845 40.0052C482.423 44.0708 483.81 49.7094 485.307 56.7101V59.0835C484.227 63.7561 483.567 68.9241 480.093 72.4284C469.802 82.8042 453.688 80.8113 440.39 80.7939L393.408 80.8163C393.248 75.1332 393.339 68.985 393.316 63.2644Z" fill="#1D1D1D"/>
  </g>
</svg>
